<svg width="67" height="67" viewBox="0 0 67 67" fill="none" xmlns="http://www.w3.org/2000/svg">
<path d="M64.2083 5.58333C63.4679 5.58333 62.7579 5.87745 62.2343 6.40099C61.7108 6.92453 61.4167 7.6346 61.4167 8.375V11.1667H55.8333V8.375C55.8333 7.6346 55.5392 6.92453 55.0157 6.40099C54.4921 5.87745 53.7821 5.58333 53.0417 5.58333C52.3013 5.58333 51.5912 5.87745 51.0677 6.40099C50.5441 6.92453 50.25 7.6346 50.25 8.375V15.3542C50.2497 16.9631 50.8052 18.5227 51.8227 19.7691C52.8401 21.0154 54.2569 21.872 55.8333 22.1938V47.4583C55.8333 48.9391 55.2451 50.3593 54.198 51.4063C53.1509 52.4534 51.7308 53.0417 50.25 53.0417H44.6667V30.7083H39.0833C38.3429 30.7083 37.6329 30.4142 37.1093 29.8907C36.5858 29.3671 36.2917 28.6571 36.2917 27.9167C36.2917 27.1763 36.5858 26.4662 37.1093 25.9427C37.6329 25.4191 38.3429 25.125 39.0833 25.125H44.6667V13.9583C44.6622 10.2577 43.1902 6.70993 40.5735 4.0932C37.9567 1.47646 34.409 0.00443277 30.7083 0L13.9583 0C10.2577 0.00443277 6.70993 1.47646 4.0932 4.0932C1.47646 6.70993 0.00443277 10.2577 0 13.9583L0 25.125H5.58333C6.32373 25.125 7.0338 25.4191 7.55734 25.9427C8.08088 26.4662 8.375 27.1763 8.375 27.9167C8.375 28.6571 8.08088 29.3671 7.55734 29.8907C7.0338 30.4142 6.32373 30.7083 5.58333 30.7083H0V53.0417C0.00443277 56.7423 1.47646 60.2901 4.0932 62.9068C6.70993 65.5235 10.2577 66.9956 13.9583 67H30.7083C33.4234 66.9968 36.0788 66.2032 38.3503 64.716C40.6218 63.2287 42.4111 61.1123 43.4998 58.625H50.25C53.2116 58.625 56.0519 57.4485 58.146 55.3544C60.2402 53.2602 61.4167 50.4199 61.4167 47.4583V22.1938C62.9931 21.872 64.4099 21.0154 65.4273 19.7691C66.4448 18.5227 67.0003 16.9631 67 15.3542V8.375C67 7.6346 66.7059 6.92453 66.1823 6.40099C65.6588 5.87745 64.9487 5.58333 64.2083 5.58333ZM29.9602 32.0763L24.7063 40.5545C24.3161 41.1839 23.6919 41.6324 22.9709 41.8015C22.25 41.9706 21.4915 41.8464 20.8621 41.4563C20.2328 41.0661 19.7842 40.4419 19.6151 39.7209C19.446 39 19.5702 38.2415 19.9604 37.6121L24.24 30.7083H18.4669C17.763 30.7086 17.0689 30.544 16.4401 30.2277C15.8114 29.9114 15.2655 29.4521 14.8461 28.8868C14.4268 28.3215 14.1458 27.6658 14.0256 26.9723C13.9053 26.2788 13.9492 25.5668 14.1538 24.8933C14.2186 24.6645 14.3124 24.445 14.4329 24.24L19.9548 15.2872C20.1361 14.954 20.3834 14.6612 20.6816 14.4268C20.9798 14.1924 21.3227 14.0212 21.6893 13.9237C22.0558 13.8261 22.4384 13.8044 22.8137 13.8596C23.189 13.9149 23.549 14.0461 23.8719 14.2451C24.1948 14.4442 24.4738 14.7069 24.6917 15.0174C24.9097 15.3278 25.0621 15.6794 25.1397 16.0507C25.2172 16.422 25.2183 16.8053 25.1428 17.177C25.0673 17.5487 24.9169 17.9012 24.7007 18.2128L20.4573 25.125H26.2417C27.0523 25.1218 27.8486 25.3392 28.5451 25.7541C29.2416 26.1689 29.8121 26.7655 30.1954 27.4798C30.5787 28.1942 30.7603 28.9994 30.7209 29.8091C30.6814 30.6188 30.4223 31.4026 29.9713 32.0763H29.9602Z" fill="#00A79D"/>
</svg>
