<svg width="28" height="28" viewBox="0 0 28 28" fill="none" xmlns="http://www.w3.org/2000/svg">
<path d="M9.09968 2.3335H18.8997C22.633 2.3335 25.6663 5.36683 25.6663 9.10016V18.9002C25.6663 20.6948 24.9534 22.4159 23.6844 23.6849C22.4154 24.9539 20.6943 25.6668 18.8997 25.6668H9.09968C5.36634 25.6668 2.33301 22.6335 2.33301 18.9002V9.10016C2.33301 7.30553 3.04592 5.5844 4.31492 4.31541C5.58391 3.04641 7.30504 2.3335 9.09968 2.3335ZM8.86634 4.66683C7.75243 4.66683 6.68415 5.10933 5.89649 5.89698C5.10884 6.68463 4.66634 7.75292 4.66634 8.86683V19.1335C4.66634 21.4552 6.54467 23.3335 8.86634 23.3335H19.133C20.2469 23.3335 21.3152 22.891 22.1029 22.1033C22.8905 21.3157 23.333 20.2474 23.333 19.1335V8.86683C23.333 6.54516 21.4547 4.66683 19.133 4.66683H8.86634ZM20.1247 6.41683C20.5114 6.41683 20.8824 6.57048 21.1559 6.84397C21.4294 7.11746 21.583 7.48839 21.583 7.87516C21.583 8.26194 21.4294 8.63287 21.1559 8.90636C20.8824 9.17985 20.5114 9.3335 20.1247 9.3335C19.7379 9.3335 19.367 9.17985 19.0935 8.90636C18.82 8.63287 18.6663 8.26194 18.6663 7.87516C18.6663 7.48839 18.82 7.11746 19.0935 6.84397C19.367 6.57048 19.7379 6.41683 20.1247 6.41683ZM13.9997 8.16683C15.5468 8.16683 17.0305 8.78141 18.1245 9.87537C19.2184 10.9693 19.833 12.4531 19.833 14.0002C19.833 15.5473 19.2184 17.031 18.1245 18.125C17.0305 19.2189 15.5468 19.8335 13.9997 19.8335C12.4526 19.8335 10.9688 19.2189 9.87489 18.125C8.78092 17.031 8.16634 15.5473 8.16634 14.0002C8.16634 12.4531 8.78092 10.9693 9.87489 9.87537C10.9688 8.78141 12.4526 8.16683 13.9997 8.16683ZM13.9997 10.5002C13.0714 10.5002 12.1812 10.8689 11.5248 11.5253C10.8684 12.1817 10.4997 13.0719 10.4997 14.0002C10.4997 14.9284 10.8684 15.8187 11.5248 16.475C12.1812 17.1314 13.0714 17.5002 13.9997 17.5002C14.9279 17.5002 15.8182 17.1314 16.4745 16.475C17.1309 15.8187 17.4997 14.9284 17.4997 14.0002C17.4997 13.0719 17.1309 12.1817 16.4745 11.5253C15.8182 10.8689 14.9279 10.5002 13.9997 10.5002Z" fill="black"/>
</svg>
