<svg width="138" height="43" viewBox="0 0 138 43" fill="none" xmlns="http://www.w3.org/2000/svg">
<path d="M37.8742 6.29479C37.889 5.72929 38.1758 5.3542 38.7973 5.0796C38.2812 4.99926 37.9392 5.11026 37.7149 5.37623C37.4905 5.6422 37.5248 5.94079 37.8742 6.29479Z" fill="url(#paint0_linear_1_4)"/>
<path d="M35.9508 1.10274C36.9078 1.84922 37.2011 2.95736 36.7612 4.12345C36.4487 3.92176 36.1588 3.61343 35.7383 3.89162C35.7304 3.83879 35.7075 3.78944 35.6726 3.74954C35.6378 3.70963 35.5922 3.68088 35.5417 3.66674C34.5086 3.27264 33.8915 2.45082 33.4436 1.46439C33.4436 1.31254 33.4732 1.14911 33.3062 1.0645C33.2777 1.04942 33.1925 1.09114 33.172 1.12824C33.0584 1.31254 33.2857 1.32877 33.3323 1.43657C33.3436 2.08453 33.8028 2.525 34.054 3.05936L33.6596 3.07791C33.2516 2.56325 33.039 1.9605 32.9049 1.32298C33.0254 1.22098 32.9833 1.15142 32.8606 1.09115C32.8229 1.04281 32.7965 0.986461 32.7831 0.926264C32.7697 0.866077 32.7698 0.803574 32.7833 0.743414C32.9083 0.648361 32.8766 0.575339 32.7526 0.511589C32.7167 0.462417 32.6926 0.405314 32.6824 0.344902C32.6721 0.284489 32.6759 0.222473 32.6936 0.163842C32.9027 0.138342 33.1243 0.226439 33.3209 0.0908203L33.5596 0.125601L35.6326 0.848902L35.7225 0.904533C35.7226 0.933577 35.7289 0.962245 35.7409 0.98858C35.7529 1.01491 35.7704 1.03829 35.7921 1.05711C35.8137 1.07593 35.8392 1.08975 35.8665 1.09763C35.8939 1.1055 35.9228 1.10725 35.9508 1.10274Z" fill="url(#paint1_linear_1_4)"/>
<path d="M37.1155 12.3821C36.7323 11.4296 36.5179 10.4483 36.7538 9.41773C36.8978 8.78276 37.1824 8.23076 37.7743 7.92898C38.1145 7.7726 38.3629 7.8087 38.3855 8.27885C38.5914 9.1302 38.4949 10.032 38.1145 10.8127C37.8582 11.3262 37.3581 11.7207 37.4342 12.3929L37.3151 12.4987L37.1155 12.3821Z" fill="url(#paint2_linear_1_4)"/>
<path d="M33.5131 6.6064C33.5615 6.53853 33.6235 6.4835 33.6945 6.44543C33.7655 6.40737 33.8434 6.3874 33.9226 6.38693C34.5842 6.22643 35.2746 6.27668 35.9105 6.53159C35.9657 6.6064 36.0715 6.65637 36.0359 6.78106C35.892 6.80506 35.7592 6.87865 35.6571 6.99097C35.5549 7.10328 35.4888 7.2484 35.4687 7.40468C35.0178 7.99831 34.3402 8.1829 33.7512 8.52715C33.0806 8.53015 32.4124 8.61378 31.7588 8.77653C32.0279 7.90353 32.5835 7.2799 33.2727 6.78106C33.3912 6.7835 33.4843 6.7474 33.5131 6.6064Z" fill="url(#paint3_linear_1_4)"/>
<path d="M35.125 10.3021C35.1161 11.0035 34.1371 12.1449 33.5162 12.1874C33.4053 12.1948 33.3533 12.1705 33.3211 12.0464C33.1327 11.3171 33.8078 9.99942 34.493 9.76842C34.9653 9.60923 35.1327 9.75023 35.125 10.3021Z" fill="url(#paint4_linear_1_4)"/>
<path d="M30.8408 4.11547C31.7245 3.66581 32.6937 3.72005 33.2337 4.26375C33.4266 4.45786 33.6744 4.69289 33.5704 4.97742C33.4664 5.26195 33.1145 5.32579 32.827 5.35711C32.1723 5.43548 31.2733 4.85442 30.8408 4.11547Z" fill="url(#paint5_linear_1_4)"/>
<path d="M38.5408 3.49108C38.1527 3.56491 38.177 3.28745 38.1927 3.04354C38.2461 2.3454 39.3122 1.38544 40.0677 1.33509C40.1733 1.32838 40.246 1.31943 40.2908 1.44698C40.5444 2.16974 39.4383 3.4989 38.5408 3.49108Z" fill="#3AAFA9"/>
<path d="M35.4602 7.431C35.4802 7.30181 35.5462 7.18182 35.6481 7.08891C35.75 6.996 35.8826 6.93516 36.0261 6.91528C36.1294 7.51144 35.7472 7.88072 35.2605 8.18194C34.1713 8.85544 32.9914 8.91535 31.7588 8.56875C32.4108 8.43413 33.0776 8.36494 33.7466 8.36241C34.5225 8.44706 35.0563 8.07263 35.5268 7.59094C35.5762 7.53825 35.5543 7.45988 35.4602 7.431Z" fill="url(#paint6_linear_1_4)"/>
<path d="M37.2752 12.4987C37.1949 11.8423 37.7666 11.4572 38.0531 10.9558C38.831 10.5953 39.0061 9.17096 38.363 8.48162C38.3371 8.02018 38.0558 7.98728 37.6642 8.13999C38.3124 7.72074 38.376 7.72899 38.739 8.29731C38.9248 8.57387 39.0431 8.88324 39.0858 9.20471C39.1285 9.52618 39.0947 9.85224 38.9866 10.1608C38.685 11.0767 38.0893 11.8906 37.2752 12.4987Z" fill="#3AAFA9"/>
<path d="M35.7046 3.95672C36.0942 3.68697 36.3634 3.9923 36.6548 4.18629C35.8989 4.61329 35.1925 4.45261 34.5127 3.97049L34.5506 3.92802C34.6106 3.94784 34.6747 3.94747 34.7344 3.92699C34.7941 3.90649 34.8467 3.86685 34.8854 3.81323L35.0268 3.90392L34.9434 3.94294L35.031 3.90622C35.2622 3.79602 35.4597 4.28615 35.7046 3.95672Z" fill="url(#paint7_linear_1_4)"/>
<path d="M35.7368 1.02153L33.5947 0.401123C34.3663 0.464761 35.0968 0.631785 35.7368 1.02153Z" fill="url(#paint8_linear_1_4)"/>
<path d="M35.7366 6.60519C35.1491 6.40344 34.5115 6.36369 33.9004 6.49063C34.5358 6.20544 35.1489 6.22222 35.7366 6.60519Z" fill="url(#paint9_linear_1_4)"/>
<path d="M33.5947 3.21308L34.0275 3.19263L34.5028 3.66943C34.5028 3.80494 34.5091 3.94044 34.5128 4.07466L34.4666 4.12324C34.0818 3.9326 33.7736 3.61087 33.5947 3.21308Z" fill="url(#paint10_linear_1_4)"/>
<path d="M33.2888 0.265281C33.097 0.501325 32.8808 0.348006 32.6768 0.392388C32.8476 -0.188647 33.0815 0.245106 33.2888 0.265281Z" fill="url(#paint11_linear_1_4)"/>
<path d="M36.0433 1.32782C36.007 1.33482 35.9698 1.33229 35.9342 1.32039C35.8986 1.30849 35.8654 1.28748 35.8367 1.25868C35.8078 1.22989 35.7842 1.19394 35.7671 1.15311C35.75 1.11228 35.7398 1.06746 35.7373 1.02148" fill="url(#paint12_linear_1_4)"/>
<path d="M32.6768 0.711182C33.021 0.791835 33.1094 0.88955 32.762 1.02138L32.6768 0.711182Z" fill="url(#paint13_linear_1_4)"/>
<path d="M33.5951 6.60631C33.5585 6.86028 33.4399 6.92544 33.2891 6.91419C33.3112 6.81875 33.3531 6.7369 33.4084 6.68131C33.4636 6.62581 33.5292 6.59937 33.5951 6.60631Z" fill="url(#paint14_linear_1_4)"/>
<path d="M33.5921 1.64199L33.4789 1.62059C33.4314 1.53762 33.2094 1.52512 33.3192 1.38328C33.3407 1.35473 33.4246 1.32262 33.4529 1.33422C33.6216 1.39935 33.5945 1.52513 33.5921 1.64199Z" fill="url(#paint15_linear_1_4)"/>
<path d="M34.5127 3.50293L34.8187 3.91236C34.7836 3.99927 34.7366 4.06354 34.6832 4.09711C34.63 4.13068 34.573 4.13205 34.5193 4.10105C34.5174 3.90293 34.5146 3.70293 34.5127 3.50293Z" fill="url(#paint16_linear_1_4)"/>
<path d="M6.30857 37.6255C5.58618 37.6298 4.867 37.5277 4.17331 37.3223C3.51795 37.1271 2.89392 36.8359 2.32082 36.4576C1.76518 36.0916 1.2691 35.6393 0.850586 35.117L2.49046 33.4454C2.94323 34.0307 3.52423 34.4997 4.18688 34.8149C4.86318 35.12 5.59623 35.2721 6.33571 35.2611C7.12731 35.2611 7.73993 35.122 8.17347 34.8437C8.37508 34.727 8.54204 34.5567 8.65651 34.3512C8.77098 34.1456 8.82872 33.9123 8.82375 33.676C8.83436 33.453 8.79229 33.2307 8.70121 33.0277C8.61012 32.8247 8.47255 32.647 8.30015 32.5093C7.89552 32.201 7.44122 31.967 6.95772 31.8176C6.41036 31.6347 5.83051 31.4523 5.21831 31.2701C4.61795 31.092 4.03583 30.8554 3.48004 30.5635C2.9451 30.286 2.48408 29.8806 2.13648 29.3818C1.78738 28.8823 1.61285 28.2194 1.61285 27.3933C1.59431 26.6328 1.80124 25.8844 2.20659 25.2457C2.61679 24.629 3.19065 24.144 3.86117 23.8473C4.56839 23.5215 5.4215 23.3582 6.4205 23.3574C7.38695 23.3394 8.34616 23.5312 9.23429 23.92C10.0445 24.2861 10.7427 24.8684 11.2554 25.6053L9.61544 27.278C9.24631 26.7847 8.76609 26.3893 8.21535 26.1252C7.6264 25.8487 6.98401 25.7108 6.33571 25.7217C5.60055 25.7217 5.03962 25.8513 4.65284 26.1102C4.47125 26.2224 4.32202 26.3815 4.22031 26.5714C4.11861 26.7612 4.06805 26.9753 4.07379 27.1915C4.06422 27.3985 4.1058 27.6046 4.19472 27.7909C4.28364 27.9773 4.41706 28.1379 4.58272 28.2579C4.99333 28.5424 5.44678 28.7565 5.92517 28.8919C6.48154 29.0649 7.06139 29.2423 7.66452 29.4245C8.26362 29.6059 8.84187 29.8525 9.38923 30.16C9.92663 30.4594 10.3869 30.884 10.7328 31.3992C11.0812 31.918 11.2554 32.6001 11.2554 33.4454C11.2554 34.7327 10.8078 35.751 9.91292 36.5003C9.01794 37.2496 7.81646 37.6246 6.30857 37.6255Z" fill="#3AAFA9"/>
<path d="M20.3117 37.6249C19.0197 37.6426 17.747 37.3135 16.6288 36.6726C15.5473 36.0566 14.6513 35.166 14.0334 34.0927C13.4006 32.9916 13.0758 31.7433 13.0926 30.4765C13.0735 29.204 13.4005 27.9497 14.0392 26.8453C14.6555 25.7818 15.548 24.9009 16.6242 24.2942C17.747 23.662 19.0201 23.3384 20.3117 23.357C21.3321 23.3477 22.3434 23.5491 23.2808 23.9483C24.1868 24.3378 24.9927 24.9241 25.6387 25.6637L23.8921 27.3928C23.4694 26.8964 22.9338 26.5061 22.3296 26.2539C21.6907 25.9896 21.0041 25.8575 20.3117 25.8654C19.4959 25.8508 18.6913 26.0547 17.9829 26.4556C17.3091 26.8441 16.7551 27.4072 16.3808 28.0845C15.9822 28.819 15.7817 29.6429 15.7986 30.4765C15.7814 31.3101 15.9819 32.1341 16.3808 32.8685C16.7572 33.5478 17.3104 34.115 17.9829 34.5112C18.688 34.9216 19.4939 35.131 20.3117 35.1164C21.0056 35.125 21.6939 34.9927 22.3342 34.7279C22.9426 34.4706 23.4849 34.0813 23.9212 33.589L25.6387 35.3181C24.9952 36.0509 24.1944 36.6318 23.2948 37.0185C22.3547 37.4266 21.3382 37.6332 20.3117 37.6249Z" fill="#3AAFA9"/>
<path d="M58.9951 24.7745V22.1594H67.2577V24.7745H58.9951ZM65.1547 37.314C63.9709 37.314 63.115 36.9699 62.5871 36.2819C62.0592 35.5938 61.7951 34.6057 61.7951 33.3178V17.7725H64.4114V33.3189C64.4114 33.755 64.5008 34.094 64.6796 34.3359C64.7695 34.456 64.8875 34.552 65.0232 34.6154C65.159 34.6787 65.3082 34.7074 65.4577 34.6989H67.2577V37.3151L65.1547 37.314Z" fill="#3AAFA9"/>
<path d="M36.8674 32.7311C37.1075 32.3704 36.6172 31.9856 36.3303 32.3057L36.3213 32.315C35.0762 33.6822 33.2738 33.8325 32.0053 32.6895C31.4245 32.1634 31.0603 31.4274 30.9871 30.6323C30.9141 29.8372 31.1377 29.0432 31.6122 28.4133C32.6173 27.0565 34.4308 26.8589 35.9126 27.951C36.2086 28.1695 36.5547 28.6444 36.8662 28.2561C37.1778 27.8678 36.6429 27.5997 36.3827 27.3674C35.1857 26.2776 33.4012 26.1609 32.0097 27.0519C31.3362 27.4785 30.811 28.1155 30.51 28.8709C30.2089 29.6264 30.1475 30.4613 30.3347 31.2552C30.7289 32.8847 32.108 34.0982 33.6848 34.2023C35.0706 34.2959 36.1728 33.7781 36.8674 32.7311Z" fill="#3AAFA9"/>
<path d="M33.8652 31.7313C33.2407 31.6649 32.817 31.3186 32.437 30.886C32.3423 30.7754 32.3444 30.7089 32.4776 30.6293C32.8586 30.4081 33.7882 30.4534 34.1359 30.7499C34.3368 30.9192 34.5866 31.1349 34.493 31.4137C34.3993 31.6926 34.0745 31.6771 33.8652 31.7313Z" fill="#3AAFA9"/>
<path d="M35.4308 30.2088C35.4416 30.4362 35.3106 30.51 35.0701 30.4862C34.5483 30.4362 33.8535 29.6135 33.904 29.0943C33.9136 28.9848 33.9628 28.9514 34.0675 28.9419C34.6266 28.8919 35.4465 29.6302 35.4308 30.2088Z" fill="#3AAFA9"/>
<path d="M40.9395 28.9397V31.7315H44.9177V28.9397H40.9395Z" fill="#3AAFA9"/>
<path d="M52.808 30.0231C51.4707 25.1389 50.5413 17.763 49.0673 12.9976C48.5203 11.232 47.8991 9.49176 46.8318 7.95323C44.4122 4.46357 41.6054 4.24457 38.0327 4.51654C37.3189 4.57073 36.9017 5.20804 36.9678 5.86954C37.0373 6.55298 37.5669 6.99323 38.3294 7.00129C39.0919 7.00936 39.8765 7.00823 40.647 7.03129C41.938 7.07039 43.0517 7.51298 43.9591 8.4592C44.929 9.47217 45.5224 10.6949 45.9882 11.9834C47.2317 15.4235 48.7868 24.9499 49.9538 29.5783C50.031 29.8856 50.1083 30.1722 50.1856 30.438L50.2284 30.6016C50.2446 30.6628 50.2643 30.7169 50.2863 30.7826C50.2933 30.8045 50.3003 30.8287 50.3073 30.8494L50.2921 30.7987C50.3422 30.9345 50.4079 31.0641 50.488 31.1848C50.6699 31.4534 50.9724 31.7426 51.4313 31.731C52.1568 31.7114 52.7385 31.5305 52.8578 30.7365C52.8905 30.4978 52.8736 30.2549 52.808 30.0231ZM52.1533 30.6535C52.0897 30.762 51.9986 30.8522 51.8891 30.9149C51.7796 30.9775 51.6555 31.0105 51.5292 31.0105C51.4029 31.0105 51.2788 30.9775 51.1693 30.9149C51.0598 30.8522 50.9687 30.762 50.9051 30.6535C50.8407 30.5425 50.8076 30.4163 50.809 30.2881C50.8074 30.1619 50.8407 30.0374 50.9051 29.9286C51.004 29.7663 51.1625 29.6488 51.347 29.6008C51.5316 29.5529 51.7276 29.5782 51.8936 29.6715C52.0028 29.7335 52.0933 29.8234 52.1558 29.9318C52.2184 30.0402 52.2507 30.1632 52.2494 30.2881C52.2508 30.4166 52.2167 30.5429 52.1509 30.6535H52.1533Z" fill="#3AAFA9"/>
<path d="M57.4457 26.8366C56.8344 25.7769 55.9583 24.8994 54.9059 24.2925C53.8218 23.665 52.5923 23.342 51.3442 23.3569C50.0892 23.3384 48.8528 23.6666 47.7677 24.3064C46.7256 24.9218 45.8562 25.7977 45.2427 26.8505C44.6122 27.9358 44.2883 29.176 44.3064 30.4354C44.2912 31.688 44.6034 32.9224 45.2113 34.013C45.8193 35.1036 46.7014 36.0115 47.7677 36.6442C48.5697 37.12 49.4565 37.4309 50.3772 37.5589C51.2978 37.687 52.2343 37.6298 53.1331 37.3907C54.0319 37.1515 54.8755 36.735 55.6155 36.165C56.3555 35.5951 56.9774 34.8828 57.4457 34.0688C58.0754 32.9634 58.3989 31.706 58.382 30.4296C58.3969 29.168 58.0733 27.926 57.4457 26.8366ZM55.5913 32.9807C55.0485 33.93 54.2114 34.6707 53.2102 35.0872C52.2091 35.5038 51.1001 35.5729 50.0562 35.2836C49.0123 34.9945 48.0921 34.3633 47.4388 33.4884C46.7856 32.6136 46.4361 31.5442 46.4447 30.447C46.433 29.5706 46.6586 28.7078 47.0971 27.9526C47.5243 27.2194 48.1293 26.6091 48.8545 26.1798C49.6116 25.7335 50.4744 25.5052 51.3499 25.5195C52.2187 25.5092 53.0746 25.7339 53.8293 26.1706C54.5729 26.5993 55.1896 27.2224 55.615 27.975C56.0404 28.7275 56.2591 29.5819 56.2482 30.4493C56.2582 31.3377 56.0312 32.2123 55.5913 32.9807Z" fill="#3AAFA9"/>
<path d="M54.5215 28.5915C54.2027 28.0361 53.7455 27.5762 53.1961 27.2585C52.6326 26.9304 51.9933 26.7613 51.3443 26.7687C50.6896 26.7585 50.0446 26.9302 49.4788 27.2653C48.9345 27.5878 48.4808 28.0473 48.1612 28.5996C47.8326 29.1675 47.6635 29.8164 47.6722 30.4754C47.6722 31.4667 48.0591 32.4175 48.7478 33.1184C49.4363 33.8194 50.3704 34.2131 51.3443 34.2131C52.3181 34.2131 53.2521 33.8194 53.9407 33.1184C54.6293 32.4175 55.0162 31.4667 55.0162 30.4754C55.0226 29.8134 54.8516 29.1621 54.5215 28.5915ZM53.7994 31.9549C53.5507 32.3924 53.1924 32.7551 52.7611 33.0056C52.3298 33.2562 51.8408 33.3858 51.3443 33.3813C50.9695 33.3853 50.5976 33.313 50.2508 33.1685C49.9039 33.0241 49.5889 32.8105 49.3243 32.5402C49.0598 32.27 48.851 31.9485 48.7104 31.5949C48.5697 31.2414 48.5 30.8626 48.5053 30.4811C48.4983 29.9715 48.6291 29.4697 48.8833 29.0306C49.13 28.6016 49.4809 28.2446 49.9021 27.9936C50.3397 27.7346 50.8381 27.6015 51.3443 27.6087C51.8477 27.6027 52.3435 27.7336 52.7807 27.9878C53.2108 28.2386 53.5669 28.6022 53.812 29.0407C54.0571 29.4792 54.1821 29.9767 54.1741 30.4811C54.1816 30.9977 54.0522 31.5069 53.7994 31.9549Z" fill="#3AAFA9"/>
<path d="M40.0022 26.8425C39.3912 25.7808 38.5151 24.9017 37.4623 24.2941C36.3784 23.6654 35.1489 23.3418 33.9007 23.3569C32.6461 23.3385 31.4101 23.6673 30.3254 24.3079C29.2832 24.9244 28.414 25.8018 27.8004 26.8564C27.1696 27.9434 26.8452 29.1858 26.863 30.4474C26.8471 31.7032 27.1593 32.9409 27.7675 34.0344C28.3757 35.1278 29.2583 36.0381 30.3254 36.6725C31.4098 37.3142 32.6459 37.6433 33.9007 37.6248C34.8303 37.6344 35.7526 37.4551 36.6129 37.0971C37.4732 36.7392 38.2543 36.21 38.9102 35.5407C39.566 34.8714 40.0834 34.0756 40.4317 33.2C40.7801 32.3245 40.9524 31.387 40.9385 30.4428C40.9542 29.1785 40.6305 27.9339 40.0022 26.8425ZM38.1478 32.997C37.7175 33.7519 37.0976 34.3773 36.3514 34.8093C35.6052 35.2411 34.7595 35.464 33.9007 35.4551C33.027 35.4697 32.166 35.2423 31.4099 34.7972C30.6667 34.3561 30.0519 33.7224 29.6286 32.9611C29.2052 32.1997 28.9884 31.3379 29.0002 30.4637C28.9876 29.5851 29.2129 28.72 29.6513 27.9627C30.0791 27.2283 30.6844 26.6169 31.4099 26.1869C32.1649 25.7409 33.0252 25.5122 33.8985 25.5254C34.7673 25.515 35.6232 25.7401 36.3778 26.1776C37.1212 26.6074 37.7377 27.2316 38.1633 27.9854C38.5889 28.739 38.808 29.5948 38.7978 30.4637C38.8094 31.3524 38.5839 32.2278 38.1455 32.997H38.1478Z" fill="#3AAFA9"/>
<path d="M111.324 37.6253H108.876L109.41 27.3887L111.274 31.1775C111.303 31.2246 111.321 30.0359 111.319 31.3377L111.324 37.6253Z" fill="#3AAFA9"/>
<path d="M104.745 23.666C101.115 23.666 98.165 26.7915 98.165 30.6455C98.165 34.4997 101.115 37.6251 104.745 37.6251C108.374 37.6251 111.324 34.5008 111.324 30.6455C111.324 26.7902 108.38 23.666 104.745 23.666ZM105.568 30.8286C105.579 30.8808 105.584 30.9341 105.584 30.9874V33.0343C105.586 33.1422 105.567 33.2494 105.529 33.35C105.489 33.4505 105.432 33.5423 105.358 33.6201C105.285 33.6978 105.196 33.7601 105.099 33.8031C105.001 33.8462 104.896 33.8693 104.79 33.8711H104.698C104.592 33.8693 104.487 33.8462 104.389 33.8031C104.291 33.7601 104.203 33.6978 104.13 33.6201C104.056 33.5423 103.998 33.4505 103.959 33.35C103.92 33.2494 103.902 33.1422 103.903 33.0343V30.9874C103.904 30.9342 103.909 30.881 103.918 30.8286C103.777 30.7007 103.662 30.5438 103.584 30.3679C103.506 30.1921 103.465 30.0015 103.465 29.8086C103.455 29.6338 103.482 29.4589 103.542 29.2947C103.602 29.1304 103.694 28.9802 103.812 28.8533C103.932 28.7264 104.074 28.6253 104.233 28.5562C104.392 28.4871 104.563 28.4515 104.734 28.4515C104.907 28.4515 105.078 28.4871 105.237 28.5562C105.396 28.6253 105.538 28.7264 105.657 28.8533C105.776 28.9802 105.868 29.1304 105.928 29.2947C105.987 29.4589 106.013 29.6338 106.005 29.8086C106.007 30.001 105.969 30.1917 105.893 30.3681C105.817 30.5445 105.706 30.7026 105.565 30.832L105.568 30.8286Z" fill="#3AAFA9"/>
<path d="M76.5144 37.005C75.8556 37.0094 75.1999 36.9119 74.5696 36.7156C73.9696 36.5274 73.4006 36.2485 72.8813 35.8879C72.3716 35.535 71.9193 35.1021 71.541 34.6051L73.0361 33.0053C73.4431 33.561 73.9729 34.0101 74.582 34.3157C75.195 34.6078 75.8644 34.7543 76.5404 34.744C77.2613 34.744 77.8195 34.6105 78.215 34.3435C78.4012 34.2273 78.5538 34.0628 78.6579 33.8665C78.7618 33.6704 78.8134 33.4495 78.8072 33.2264C78.8072 32.7487 78.6482 32.3763 78.3304 32.1092C77.9639 31.8159 77.5496 31.5917 77.1065 31.447C76.6086 31.2718 76.0812 31.0971 75.5245 30.9226C74.9764 30.7523 74.4464 30.5262 73.9424 30.2477C73.451 29.9779 73.031 29.5898 72.7186 29.1167C72.3999 28.6389 72.241 28.0045 72.2417 27.2135C72.2242 26.4889 72.4122 25.7747 72.783 25.1574C73.15 24.5729 73.6733 24.1089 74.2905 23.8204C74.9346 23.5117 75.7117 23.3573 76.6217 23.3573C77.5046 23.3405 78.3802 23.5239 79.1858 23.8944C79.931 24.2516 80.5677 24.8094 81.0277 25.5083L79.5338 27.1023C79.2013 26.6349 78.7636 26.2565 78.2581 25.999C77.724 25.7358 77.1374 25.6038 76.5449 25.6135C75.8752 25.6135 75.364 25.7375 75.0114 25.9852C74.8439 26.0965 74.7073 26.2503 74.6148 26.4316C74.5224 26.613 74.4772 26.8157 74.4836 27.0202C74.474 27.2159 74.5111 27.4112 74.5918 27.589C74.6726 27.7668 74.7945 27.9216 74.947 28.0401C75.319 28.3112 75.7326 28.5166 76.1708 28.6479C76.6786 28.8129 77.206 28.9827 77.7529 29.1572C78.3006 29.3318 78.8278 29.5678 79.3248 29.8611C79.8198 30.151 80.2401 30.5578 80.5509 31.0477C80.868 31.5439 81.027 32.1965 81.0277 33.0053C81.0277 34.2401 80.6198 35.2149 79.8039 35.9295C78.988 36.6442 77.8915 37.0027 76.5144 37.005Z" fill="#3AAFA9"/>
<path d="M83.7822 42.2785V23.6283H86.1341V27.0867L85.6894 30.2697L86.1341 33.4795V42.2785H83.7822ZM90.315 37.0528C89.4277 37.0664 88.5512 36.8522 87.7673 36.4303C87.0213 36.0272 86.3943 35.4305 85.9507 34.7011C85.4912 33.9407 85.2305 33.0743 85.1931 32.1835V28.2258C85.2271 27.3281 85.493 26.4552 85.9645 25.6943C86.4195 24.9718 87.0513 24.3809 87.7983 23.9791C88.5735 23.5592 89.441 23.3451 90.3197 23.3566C91.4099 23.3442 92.4795 23.662 93.3903 24.2694C94.3106 24.8839 95.0543 25.7336 95.5463 26.7325C96.0618 27.8196 96.3295 29.0102 96.3295 30.2163C96.3295 31.4223 96.0618 32.613 95.5463 33.7002C95.0543 34.6965 94.3087 35.5413 93.3856 36.147C92.472 36.746 91.4034 37.0587 90.315 37.0457V37.0528ZM89.9233 34.7011C90.6521 34.7162 91.3695 34.5143 91.9865 34.1206C92.5865 33.7247 93.0729 33.176 93.3969 32.5296C93.7415 31.8018 93.9199 31.0052 93.9199 30.1983C93.9199 29.3914 93.7415 28.5947 93.3969 27.867C93.0786 27.2168 92.5903 26.6668 91.9865 26.2761C91.3752 25.8922 90.6672 25.695 89.9485 25.7082C89.228 25.6863 88.5171 25.8793 87.9038 26.263C87.2905 26.6468 86.8019 27.2045 86.4986 27.867C86.1735 28.5998 86.0044 29.3936 86.0023 30.1969C86.0001 31.0003 86.1649 31.7951 86.486 32.5296C86.7906 33.1896 87.2775 33.746 87.8877 34.1314C88.498 34.5168 89.2055 34.7147 89.9245 34.7011H89.9233Z" fill="#3AAFA9"/>
<path d="M119.677 37.0046C118.506 37.0198 117.354 36.7046 116.353 36.095C115.37 35.4948 114.563 34.6435 114.015 33.6279C113.454 32.5589 113.161 31.3687 113.161 30.1604C113.161 28.9521 113.454 27.762 114.015 26.6928C114.564 25.6849 115.371 24.8424 116.353 24.2523C117.357 23.6516 118.508 23.3415 119.677 23.3567C120.6 23.3485 121.515 23.5411 122.357 23.9214C123.181 24.2992 123.907 24.8604 124.484 25.5623L122.907 27.2171C122.532 26.7465 122.05 26.3729 121.502 26.127C120.927 25.8744 120.304 25.7478 119.677 25.7555C118.946 25.7394 118.227 25.9299 117.6 26.3052C116.973 26.6805 116.464 27.2255 116.13 27.8778C115.785 28.5909 115.604 29.3736 115.604 30.1667C115.604 30.9599 115.785 31.7426 116.13 32.4556C116.464 33.0993 116.962 33.6418 117.575 34.0271C118.206 34.4183 118.935 34.6191 119.677 34.6057C120.304 34.6135 120.927 34.4868 121.502 34.2343C122.055 33.9847 122.545 33.6124 122.934 33.1454L124.484 34.7989C123.91 35.4945 123.187 36.0508 122.369 36.426C121.525 36.8147 120.606 37.0123 119.677 37.0046Z" fill="#3AAFA9"/>
<path d="M132.26 37.0044C131.101 37.0213 129.959 36.7199 128.957 36.1322C127.955 35.5447 127.129 34.6931 126.568 33.6683C126.005 32.5943 125.71 31.3977 125.707 30.1821C125.705 28.9667 125.996 27.7689 126.556 26.6928C127.097 25.6901 127.888 24.8485 128.852 24.2524C129.831 23.6517 130.957 23.3413 132.103 23.3568C133.247 23.3568 134.261 23.6326 135.143 24.1841C136.026 24.7401 136.739 25.5318 137.204 26.4719C137.712 27.4985 137.967 28.6338 137.947 29.7813C137.947 29.9654 137.939 30.1621 137.922 30.3738C137.905 30.5856 137.869 30.8286 137.818 31.104H127.351V29.0361H136.566L135.704 29.8369C135.704 28.9551 135.556 28.2061 135.262 27.5897C134.987 27.0006 134.554 26.5031 134.009 26.1559C133.468 25.8157 132.815 25.6457 132.05 25.6457C131.308 25.6299 130.578 25.8209 129.936 26.1976C129.328 26.5633 128.839 27.0995 128.526 27.7413C128.195 28.4031 128.03 29.1846 128.03 30.0857C128.011 30.9205 128.191 31.7477 128.552 32.4984C128.882 33.1678 129.399 33.724 130.041 34.0976C130.717 34.4825 131.483 34.6775 132.26 34.6623C132.919 34.6699 133.572 34.5383 134.178 34.2758C134.763 34.0174 135.278 33.6205 135.679 33.1187L137.192 34.7456C136.611 35.4734 135.864 36.0498 135.017 36.427C134.149 36.8147 133.209 37.0114 132.26 37.0044Z" fill="#3AAFA9"/>
<path d="M107.059 18.7883L106.591 18.7033H103.246C102.716 18.6979 102.197 18.8584 101.759 19.1632C101.719 19.192 101.678 19.223 101.638 19.254C101.312 19.5238 101.05 19.8658 100.874 20.2541C100.696 20.6424 100.607 21.0668 100.614 21.4953V26.1479H102.311V22.0081C102.311 20.7869 102.529 20.45 103.531 20.5132H105.969C106.757 20.4385 107.277 20.5891 107.189 22.0081V26.1479H108.876V21.5378C108.875 20.2832 108.283 19.254 107.059 18.7883Z" fill="#3AAFA9"/>
<defs>
<linearGradient id="paint0_linear_1_4" x1="38.1853" y1="5.05392" x2="38.1853" y2="6.29479" gradientUnits="userSpaceOnUse">
<stop stop-color="#00D3C6"/>
<stop offset="1" stop-color="#00A79D"/>
</linearGradient>
<linearGradient id="paint1_linear_1_4" x1="34.8189" y1="0.0908203" x2="34.8189" y2="4.12345" gradientUnits="userSpaceOnUse">
<stop stop-color="#00D3C6"/>
<stop offset="1" stop-color="#00A79D"/>
</linearGradient>
<linearGradient id="paint2_linear_1_4" x1="37.5733" y1="7.84573" x2="37.5733" y2="12.4987" gradientUnits="userSpaceOnUse">
<stop stop-color="#00D3C6"/>
<stop offset="1" stop-color="#00A79D"/>
</linearGradient>
<linearGradient id="paint3_linear_1_4" x1="33.9009" y1="6.29497" x2="33.9009" y2="8.77653" gradientUnits="userSpaceOnUse">
<stop stop-color="#00D3C6"/>
<stop offset="1" stop-color="#00A79D"/>
</linearGradient>
<linearGradient id="paint4_linear_1_4" x1="34.2072" y1="9.70701" x2="34.2072" y2="12.1887" gradientUnits="userSpaceOnUse">
<stop stop-color="#00D3C6"/>
<stop offset="1" stop-color="#00A79D"/>
</linearGradient>
<linearGradient id="paint5_linear_1_4" x1="32.2179" y1="3.81323" x2="32.2179" y2="5.36423" gradientUnits="userSpaceOnUse">
<stop stop-color="#00D3C6"/>
<stop offset="1" stop-color="#00A79D"/>
</linearGradient>
<linearGradient id="paint6_linear_1_4" x1="33.9009" y1="6.91528" x2="33.9009" y2="8.7765" gradientUnits="userSpaceOnUse">
<stop stop-color="#00D3C6"/>
<stop offset="1" stop-color="#00A79D"/>
</linearGradient>
<linearGradient id="paint7_linear_1_4" x1="35.5837" y1="3.81323" x2="35.5837" y2="4.43367" gradientUnits="userSpaceOnUse">
<stop stop-color="#00D3C6"/>
<stop offset="1" stop-color="#00A79D"/>
</linearGradient>
<linearGradient id="paint8_linear_1_4" x1="34.6658" y1="0.401123" x2="34.6658" y2="1.02153" gradientUnits="userSpaceOnUse">
<stop stop-color="#00D3C6"/>
<stop offset="1" stop-color="#00A79D"/>
</linearGradient>
<linearGradient id="paint9_linear_1_4" x1="34.8185" y1="6.29497" x2="34.8185" y2="6.60519" gradientUnits="userSpaceOnUse">
<stop stop-color="#00D3C6"/>
<stop offset="1" stop-color="#00A79D"/>
</linearGradient>
<linearGradient id="paint10_linear_1_4" x1="34.0537" y1="3.19263" x2="34.0537" y2="4.12324" gradientUnits="userSpaceOnUse">
<stop stop-color="#00D3C6"/>
<stop offset="1" stop-color="#00A79D"/>
</linearGradient>
<linearGradient id="paint11_linear_1_4" x1="32.9828" y1="0.0908219" x2="32.9828" y2="0.401022" gradientUnits="userSpaceOnUse">
<stop stop-color="#00D3C6"/>
<stop offset="1" stop-color="#00A79D"/>
</linearGradient>
<linearGradient id="paint12_linear_1_4" x1="35.8904" y1="1.02148" x2="35.8904" y2="1.33168" gradientUnits="userSpaceOnUse">
<stop stop-color="#00D3C6"/>
<stop offset="1" stop-color="#00A79D"/>
</linearGradient>
<linearGradient id="paint13_linear_1_4" x1="32.8298" y1="0.711182" x2="32.8298" y2="1.02138" gradientUnits="userSpaceOnUse">
<stop stop-color="#00D3C6"/>
<stop offset="1" stop-color="#00A79D"/>
</linearGradient>
<linearGradient id="paint14_linear_1_4" x1="33.442" y1="6.60519" x2="33.442" y2="6.91541" gradientUnits="userSpaceOnUse">
<stop stop-color="#00D3C6"/>
<stop offset="1" stop-color="#00A79D"/>
</linearGradient>
<linearGradient id="paint15_linear_1_4" x1="33.4421" y1="1.33179" x2="33.4421" y2="1.64199" gradientUnits="userSpaceOnUse">
<stop stop-color="#00D3C6"/>
<stop offset="1" stop-color="#00A79D"/>
</linearGradient>
<linearGradient id="paint16_linear_1_4" x1="34.6657" y1="3.50293" x2="34.6657" y2="4.12333" gradientUnits="userSpaceOnUse">
<stop stop-color="#00D3C6"/>
<stop offset="1" stop-color="#00A79D"/>
</linearGradient>
</defs>
</svg>
