<svg width="925" height="822" viewBox="0 0 925 822" fill="none" xmlns="http://www.w3.org/2000/svg">
<g clip-path="url(#clip0_3_156)">
<path d="M438.815 13.5516C439.821 12.7995 441.006 12.3219 442.252 12.1657C443.498 12.0095 444.763 12.1801 445.924 12.6608C447.084 13.1414 448.1 13.9155 448.871 14.9072C449.641 15.8988 450.141 17.0738 450.321 18.3169C450.5 19.56 450.353 20.8284 449.894 21.9976C449.436 23.1668 448.681 24.1966 447.704 24.9859C446.727 25.7752 445.561 26.2968 444.322 26.4996C443.082 26.7023 441.811 26.5793 440.634 26.1425L437.639 30.4546L454.215 30.7876C454.488 30.7946 454.756 30.8634 454.999 30.9888C455.242 31.1142 455.453 31.2929 455.617 31.5116L464.06 42.8165C465.763 42.3683 467.571 42.5562 469.146 43.3451C470.721 44.134 471.955 45.4697 472.616 47.1024C473.277 48.7351 473.32 50.5527 472.738 52.2151C472.156 53.8775 470.987 55.2706 469.452 56.1338C467.916 56.9971 466.119 57.2711 464.396 56.9048C462.673 56.5384 461.143 55.5567 460.092 54.1434C459.04 52.7302 458.54 50.9822 458.684 49.2267C458.829 47.4712 459.608 45.8285 460.876 44.6061L453.245 34.3874L435.148 34.0328L427.402 45.1726L430.955 49.9292C431.242 50.3139 431.365 50.7971 431.296 51.2723C431.227 51.7476 430.972 52.176 430.587 52.4633C430.202 52.7506 429.719 52.8734 429.244 52.8045C428.769 52.7356 428.34 52.4807 428.053 52.096L423.72 46.293C423.492 45.9885 423.366 45.6202 423.36 45.2402C423.353 44.8602 423.467 44.4878 423.684 44.1758L437.658 24.0763C437.552 23.9525 437.446 23.8223 437.346 23.6881C436.197 22.1491 435.706 20.2165 435.981 18.3155C436.257 16.4146 437.276 14.7009 438.815 13.5516Z" fill="#3AAFA9"/>
</g>
<path d="M113.308 715.868C113.592 717.092 113.553 718.368 113.195 719.572C112.837 720.776 112.172 721.866 111.266 722.735C110.359 723.604 109.242 724.223 108.024 724.53C106.806 724.837 105.53 724.822 104.319 724.487C103.109 724.152 102.007 723.507 101.12 722.617C100.234 721.727 99.5949 720.622 99.265 719.41C98.9351 718.198 98.9261 716.921 99.2387 715.705C99.5514 714.488 100.175 713.374 101.048 712.471L98.3037 707.996L91.3351 723.039C91.2188 723.287 91.0481 723.505 90.8356 723.677C90.6232 723.848 90.3746 723.97 90.1085 724.032L76.3634 727.218C76.089 728.957 75.1899 730.538 73.8344 731.663C72.479 732.787 70.76 733.38 68.9993 733.329C67.2386 733.278 65.5569 732.587 64.2689 731.385C62.9809 730.184 62.1749 728.554 62.0018 726.801C61.8286 725.048 62.3003 723.292 63.3284 721.862C64.3565 720.432 65.8706 719.425 67.5872 719.031C69.3039 718.636 71.1055 718.881 72.6549 719.719C74.2042 720.557 75.395 721.931 76.0044 723.583L88.4288 720.704L96.0291 704.276L88.943 692.706L83.1596 694.046C82.6918 694.155 82.2001 694.073 81.7926 693.819C81.3852 693.564 81.0954 693.159 80.987 692.691C80.8785 692.223 80.9604 691.731 81.2145 691.324C81.4687 690.917 81.8743 690.627 82.3421 690.518L89.3976 688.883C89.7679 688.797 90.1557 688.83 90.5062 688.977C90.8567 689.124 91.1522 689.377 91.3506 689.702L104.136 710.578C104.292 710.53 104.454 710.485 104.617 710.448C106.489 710.014 108.455 710.342 110.085 711.358C111.715 712.375 112.874 713.997 113.308 715.868Z" fill="#3AAFA9"/>
<path d="M404.308 802.868C404.592 804.092 404.553 805.368 404.195 806.572C403.837 807.776 403.172 808.866 402.266 809.735C401.359 810.604 400.242 811.223 399.024 811.53C397.806 811.837 396.53 811.822 395.319 811.487C394.109 811.152 393.007 810.507 392.12 809.617C391.234 808.727 390.595 807.622 390.265 806.41C389.935 805.198 389.926 803.921 390.239 802.705C390.551 801.488 391.175 800.374 392.048 799.471L389.304 794.996L382.335 810.039C382.219 810.287 382.048 810.505 381.836 810.677C381.623 810.848 381.375 810.97 381.108 811.032L367.363 814.218C367.089 815.957 366.19 817.538 364.834 818.663C363.479 819.787 361.76 820.38 359.999 820.329C358.239 820.278 356.557 819.587 355.269 818.385C353.981 817.184 353.175 815.554 353.002 813.801C352.829 812.048 353.3 810.292 354.328 808.862C355.356 807.432 356.871 806.425 358.587 806.031C360.304 805.636 362.106 805.881 363.655 806.719C365.204 807.557 366.395 808.931 367.004 810.583L379.429 807.704L387.029 791.276L379.943 779.706L374.16 781.046C373.692 781.155 373.2 781.073 372.793 780.819C372.385 780.564 372.095 780.159 371.987 779.691C371.879 779.223 371.96 778.731 372.215 778.324C372.469 777.917 372.874 777.627 373.342 777.518L380.398 775.883C380.768 775.797 381.156 775.83 381.506 775.977C381.857 776.124 382.152 776.377 382.351 776.702L395.136 797.578C395.292 797.53 395.454 797.485 395.617 797.448C397.489 797.014 399.455 797.342 401.085 798.358C402.715 799.375 403.874 800.997 404.308 802.868Z" fill="#3AAFA9"/>
<path d="M247.308 170.868C247.592 172.092 247.553 173.368 247.195 174.572C246.837 175.776 246.172 176.866 245.266 177.735C244.359 178.604 243.242 179.223 242.024 179.53C240.806 179.837 239.53 179.822 238.319 179.487C237.109 179.152 236.007 178.507 235.12 177.617C234.234 176.727 233.595 175.622 233.265 174.41C232.935 173.198 232.926 171.921 233.239 170.705C233.551 169.488 234.175 168.374 235.048 167.471L232.304 162.996L225.335 178.039C225.219 178.287 225.048 178.505 224.836 178.677C224.623 178.848 224.375 178.97 224.108 179.032L210.363 182.218C210.089 183.957 209.19 185.538 207.834 186.663C206.479 187.787 204.76 188.38 202.999 188.329C201.239 188.278 199.557 187.587 198.269 186.385C196.981 185.184 196.175 183.554 196.002 181.801C195.829 180.048 196.3 178.292 197.328 176.862C198.356 175.432 199.871 174.425 201.587 174.031C203.304 173.636 205.106 173.881 206.655 174.719C208.204 175.557 209.395 176.931 210.004 178.583L222.429 175.704L230.029 159.276L222.943 147.706L217.16 149.046C216.692 149.155 216.2 149.073 215.793 148.819C215.385 148.564 215.095 148.159 214.987 147.691C214.879 147.223 214.96 146.731 215.215 146.324C215.469 145.917 215.874 145.627 216.342 145.518L223.398 143.883C223.768 143.797 224.156 143.83 224.506 143.977C224.857 144.124 225.152 144.377 225.351 144.702L238.136 165.578C238.292 165.53 238.454 165.485 238.617 165.448C240.489 165.014 242.455 165.342 244.085 166.358C245.715 167.375 246.874 168.997 247.308 170.868Z" fill="#3AAFA9"/>
<path d="M58.3079 77.8682C58.5921 79.0916 58.5533 80.3679 58.1953 81.5718C57.8373 82.7757 57.1724 83.8658 56.2658 84.7351C55.3592 85.6043 54.2422 86.2229 53.0243 86.53C51.8065 86.8372 50.5297 86.8223 49.3193 86.4869C48.1089 86.1516 47.0065 85.5072 46.1204 84.617C45.2343 83.7269 44.5949 82.6216 44.265 81.4097C43.9351 80.1978 43.9261 78.921 44.2387 77.7045C44.5514 76.4881 45.175 75.3738 46.0483 74.4712L43.3037 69.9961L36.3351 85.0394C36.2188 85.2868 36.0481 85.5046 35.8356 85.6765C35.6232 85.8485 35.3746 85.9701 35.1085 86.0323L21.3634 89.2175C21.089 90.9574 20.1899 92.5377 18.8344 93.6626C17.479 94.7875 15.76 95.3798 13.9993 95.3288C12.2386 95.2777 10.5569 94.5868 9.26889 93.3853C7.98088 92.1837 7.17488 90.554 7.00176 88.8011C6.82865 87.0482 7.30027 85.2923 8.32837 83.862C9.35647 82.4318 10.8706 81.4252 12.5872 81.0307C14.3039 80.6362 16.1055 80.8809 17.6549 81.7189C19.2042 82.5569 20.395 83.9308 21.0044 85.5834L33.4288 82.7043L41.0291 66.2762L33.943 54.7059L28.1596 56.0461C27.6918 56.1545 27.2001 56.0727 26.7926 55.8185C26.3852 55.5644 26.0954 55.1588 25.987 54.691C25.8785 54.2232 25.9604 53.7315 26.2145 53.324C26.4687 52.9166 26.8743 52.6268 27.3421 52.5183L34.3976 50.8833C34.7679 50.7975 35.1557 50.8303 35.5062 50.9772C35.8567 51.1241 36.1522 51.3775 36.3506 51.7016L49.1363 72.5777C49.2925 72.5299 49.4541 72.4855 49.6173 72.4477C51.4885 72.014 53.4554 72.3415 55.0852 73.3581C56.715 74.3746 57.8742 75.997 58.3079 77.8682Z" fill="#3AAFA9"/>
<path d="M878.621 121.474C877.841 122.458 876.818 123.222 875.652 123.691C874.487 124.16 873.22 124.318 871.976 124.149C870.731 123.98 869.552 123.491 868.553 122.729C867.555 121.966 866.772 120.958 866.281 119.802C865.791 118.645 865.609 117.381 865.754 116.134C865.9 114.886 866.367 113.698 867.11 112.686C867.854 111.673 868.847 110.872 869.994 110.359C871.141 109.847 872.401 109.642 873.651 109.764L875.446 104.83L859.334 108.737C859.068 108.8 858.791 108.802 858.525 108.743C858.258 108.683 858.008 108.564 857.794 108.395L846.746 99.6179C845.214 100.486 843.417 100.766 841.693 100.405C839.969 100.044 838.436 99.0668 837.38 97.6568C836.324 96.2468 835.819 94.5004 835.957 92.7445C836.096 90.9885 836.871 89.3434 838.135 88.117C839.399 86.8907 841.067 86.1671 842.827 86.0818C844.586 85.9965 846.316 86.5552 847.693 87.6535C849.07 88.7518 850 90.3143 850.308 92.0485C850.616 93.7828 850.282 95.5699 849.368 97.0754L859.353 105.009L876.942 100.735L881.589 87.9876L876.941 84.2947C876.565 83.9959 876.323 83.5601 876.269 83.083C876.214 82.6059 876.351 82.1266 876.65 81.7507C876.949 81.3747 877.384 81.1328 877.862 81.0781C878.339 81.0235 878.818 81.1606 879.194 81.4593L884.865 85.9647C885.162 86.2011 885.378 86.5251 885.481 86.8908C885.584 87.2566 885.57 87.6456 885.439 88.0026L877.055 111.002C877.19 111.095 877.325 111.194 877.456 111.298C878.96 112.493 879.928 114.236 880.146 116.145C880.365 118.053 879.816 119.97 878.621 121.474Z" fill="#3AAFA9"/>
<path d="M195.308 505.868C195.592 507.092 195.553 508.368 195.195 509.572C194.837 510.776 194.172 511.866 193.266 512.735C192.359 513.604 191.242 514.223 190.024 514.53C188.806 514.837 187.53 514.822 186.319 514.487C185.109 514.152 184.007 513.507 183.12 512.617C182.234 511.727 181.595 510.622 181.265 509.41C180.935 508.198 180.926 506.921 181.239 505.705C181.551 504.488 182.175 503.374 183.048 502.471L180.304 497.996L173.335 513.039C173.219 513.287 173.048 513.505 172.836 513.677C172.623 513.848 172.375 513.97 172.108 514.032L158.363 517.218C158.089 518.957 157.19 520.538 155.834 521.663C154.479 522.787 152.76 523.38 150.999 523.329C149.239 523.278 147.557 522.587 146.269 521.385C144.981 520.184 144.175 518.554 144.002 516.801C143.829 515.048 144.3 513.292 145.328 511.862C146.356 510.432 147.871 509.425 149.587 509.031C151.304 508.636 153.106 508.881 154.655 509.719C156.204 510.557 157.395 511.931 158.004 513.583L170.429 510.704L178.029 494.276L170.943 482.706L165.16 484.046C164.692 484.155 164.2 484.073 163.793 483.819C163.385 483.564 163.095 483.159 162.987 482.691C162.879 482.223 162.96 481.731 163.215 481.324C163.469 480.917 163.874 480.627 164.342 480.518L171.398 478.883C171.768 478.797 172.156 478.83 172.506 478.977C172.857 479.124 173.152 479.377 173.351 479.702L186.136 500.578C186.292 500.53 186.454 500.485 186.617 500.448C188.489 500.014 190.455 500.342 192.085 501.358C193.715 502.375 194.874 503.997 195.308 505.868Z" fill="#3AAFA9"/>
<path d="M923.709 768.297C923.671 769.552 923.307 770.776 922.653 771.848C921.999 772.921 921.077 773.804 919.978 774.413C918.88 775.021 917.641 775.333 916.386 775.319C915.13 775.304 913.899 774.963 912.815 774.329C911.73 773.695 910.83 772.791 910.201 771.703C909.572 770.616 909.236 769.384 909.227 768.128C909.219 766.872 909.536 765.635 910.15 764.539C910.763 763.443 911.651 762.526 912.726 761.877L911.218 756.848L900.633 769.609C900.457 769.818 900.236 769.985 899.987 770.097C899.738 770.209 899.466 770.262 899.193 770.255L885.091 769.818C884.38 771.43 883.107 772.727 881.509 773.468C879.911 774.209 878.097 774.342 876.408 773.842C874.719 773.342 873.27 772.244 872.332 770.753C871.395 769.262 871.032 767.48 871.313 765.741C871.594 764.002 872.499 762.426 873.859 761.306C875.219 760.186 876.94 759.601 878.701 759.658C880.461 759.716 882.14 760.413 883.424 761.62C884.707 762.826 885.507 764.459 885.673 766.213L898.421 766.608L909.971 752.67L906.08 739.672L900.146 739.489C899.666 739.474 899.212 739.269 898.883 738.919C898.554 738.569 898.378 738.103 898.392 737.623C898.407 737.143 898.612 736.688 898.962 736.359C899.312 736.031 899.778 735.854 900.258 735.869L907.497 736.093C907.877 736.105 908.244 736.236 908.545 736.468C908.846 736.699 909.067 737.02 909.176 737.384L916.196 760.836C916.359 760.83 916.527 760.828 916.694 760.833C918.614 760.893 920.432 761.713 921.747 763.112C923.063 764.512 923.768 766.377 923.709 768.297Z" fill="#3AAFA9"/>
<defs>
<clipPath id="clip0_3_156">
<rect width="57.9403" height="57.9403" fill="white" transform="translate(440.668 81.0923) rotate(-126.752)"/>
</clipPath>
</defs>
</svg>
